<svg width="24" height="24" viewBox="0 0 24 24" xmlns="http://www.w3.org/2000/svg">
  <g fill="none" fill-rule="evenodd" transform="translate(4)">
    <circle cx="12" cy="12" r="4" fill="#19BCFE"/>
    <path fill="#09CF83" d="M4 24c2.209139 0 4-1.790861 4-4v-4H4c-2.209139 0-4 1.790861-4 4s1.790861 4 4 4Z"/>
    <path fill="#A259FF" d="M4 16h4V8H4c-2.209139 0-4 1.790861-4 4s1.790861 4 4 4Z"/>
    <path fill="#F24E1E" d="M4 8h4V0H4C1.790861 0 0 1.790861 0 4s1.790861 4 4 4Z"/>
    <path fill="#FF7262" d="M12 8H8V0h4c2.209139 0 4 1.790861 4 4s-1.790861 4-4 4Z"/>
  </g>
</svg>
